name analog
datacolumns 19
datarows 33
range 0.3320000000000001 0.3480000000000001
endheader
time	ground_force_vx	ground_force_vy	ground_force_vz	ground_force_px	ground_force_py	ground_force_pz	l_ground_force_vx	l_ground_force_vy	l_ground_force_vz	l_ground_force_px	l_ground_force_py	l_ground_force_pz	ground_torque_x	ground_torque_y	ground_torque_z	l_ground_torque_x	l_ground_torque_y	l_ground_torque_z
0.3320000000000001	-0.0	-0.0	-0.0	-8.759241104125977	-12.105138778686523	-847.22607421875	-0.0	-0.0	-0.0	-0.0	-0.0	-0.0	-0.0	-0.0	-0.0	-0.0	-0.0	-0.0
0.3325000000000001	-0.0	-0.0	-0.0	-9.08591365814209	-11.672696113586426	-845.8123168945312	-0.0	-0.0	-0.0	-0.0	-0.0	-0.0	-0.0	-0.0	-0.0	-0.0	-0.0	-0.0
0.3330000000000001	-0.0	-0.0	-0.0	-9.099472045898438	-11.223538398742676	-841.6278076171875	-0.0	-0.0	-0.0	-0.0	-0.0	-0.0	-0.0	-0.0	-0.0	-0.0	-0.0	-0.0
0.3335000000000001	-0.0	-0.0	-0.0	-10.313158988952637	-11.511913299560549	-839.5365600585938	-0.0	-0.0	-0.0	-0.0	-0.0	-0.0	-0.0	-0.0	-0.0	-0.0	-0.0	-0.0
0.3340000000000001	-0.0	-0.0	-0.0	-10.70884609222412	-11.25908660888672	-835.3556518554688	-0.0	-0.0	-0.0	-0.0	-0.0	-0.0	-0.0	-0.0	-0.0	-0.0	-0.0	-0.0
0.3345000000000001	-0.0	-0.0	-0.0	-11.03646469116211	-11.768872261047363	-832.4885864257812	-0.0	-0.0	-0.0	-0.0	-0.0	-0.0	-0.0	-0.0	-0.0	-0.0	-0.0	-0.0
0.3350000000000001	-0.0	-0.0	-0.0	-10.363340377807615	-11.501548767089844	-831.07666015625	-0.0	-0.0	-0.0	-0.0	-0.0	-0.0	-0.0	-0.0	-0.0	-0.0	-0.0	-0.0
0.3355000000000001	-0.0	-0.0	-0.0	-9.56825828552246	-12.021246910095217	-829.9279174804688	-0.0	-0.0	-0.0	-0.0	-0.0	-0.0	-0.0	-0.0	-0.0	-0.0	-0.0	-0.0
0.3360000000000001	-0.0	-0.0	-0.0	-8.761961936950684	-11.85434341430664	-826.624755859375	-0.0	-0.0	-0.0	-0.0	-0.0	-0.0	-0.0	-0.0	-0.0	-0.0	-0.0	-0.0
0.3365000000000001	-0.0	-0.0	-0.0	-7.420208930969238	-13.00517749786377	-827.8693237304688	-0.0	-0.0	-0.0	-0.0	-0.0	-0.0	-0.0	-0.0	-0.0	-0.0	-0.0	-0.0
0.3370000000000001	-0.0	-0.0	-0.0	-7.144829273223877	-13.086206436157228	-828.2227172851562	-0.0	-0.0	-0.0	-0.0	-0.0	-0.0	-0.0	-0.0	-0.0	-0.0	-0.0	-0.0
0.3375000000000001	-0.0	-0.0	-0.0	-6.836643218994141	-12.628046989440918	-825.7830810546875	-0.0	-0.0	-0.0	-0.0	-0.0	-0.0	-0.0	-0.0	-0.0	-0.0	-0.0	-0.0
0.3380000000000001	-0.0	-0.0	-0.0	-6.491719722747803	-12.03672981262207	-826.038818359375	-0.0	-0.0	-0.0	-0.0	-0.0	-0.0	-0.0	-0.0	-0.0	-0.0	-0.0	-0.0
0.3385000000000001	-0.0	-0.0	-0.0	-6.219493865966797	-10.733476638793944	-824.052001953125	-0.0	-0.0	-0.0	-0.0	-0.0	-0.0	-0.0	-0.0	-0.0	-0.0	-0.0	-0.0
0.3390000000000001	-0.0	-0.0	-0.0	-6.155525207519531	-9.36296272277832	-821.4288940429688	-0.0	-0.0	-0.0	-0.0	-0.0	-0.0	-0.0	-0.0	-0.0	-0.0	-0.0	-0.0
0.3395000000000001	-0.0	-0.0	-0.0	-6.4014892578125	-8.908710479736328	-816.0687255859375	-0.0	-0.0	-0.0	-0.0	-0.0	-0.0	-0.0	-0.0	-0.0	-0.0	-0.0	-0.0
0.3400000000000001	-0.0	-0.0	-0.0	-6.351590156555176	-7.139245986938477	-813.0726318359375	-0.0	-0.0	-0.0	-0.0	-0.0	-0.0	-0.0	-0.0	-0.0	-0.0	-0.0	-0.0
0.3405000000000001	-0.0	-0.0	-0.0	-5.977104187011719	-7.108059406280518	-812.6315307617188	-0.0	-0.0	-0.0	-0.0	-0.0	-0.0	-0.0	-0.0	-0.0	-0.0	-0.0	-0.0
0.3410000000000001	-0.0	-0.0	-0.0	-5.517436981201172	-5.998941898345947	-810.8651733398438	-0.0	-0.0	-0.0	-0.0	-0.0	-0.0	-0.0	-0.0	-0.0	-0.0	-0.0	-0.0
0.3415000000000001	-0.0	-0.0	-0.0	-4.728157043457031	-5.882606506347656	-809.0804443359375	-0.0	-0.0	-0.0	-0.0	-0.0	-0.0	-0.0	-0.0	-0.0	-0.0	-0.0	-0.0
0.3420000000000001	-0.0	-0.0	-0.0	-4.272757053375244	-5.8121538162231445	-807.4248657226562	-0.0	-0.0	-0.0	-0.0	-0.0	-0.0	-0.0	-0.0	-0.0	-0.0	-0.0	-0.0
0.3425000000000001	-0.0	-0.0	-0.0	-3.254338026046753	-5.849379062652588	-806.6253662109375	-0.0	-0.0	-0.0	-0.0	-0.0	-0.0	-0.0	-0.0	-0.0	-0.0	-0.0	-0.0
0.3430000000000001	-0.0	-0.0	-0.0	-3.39963698387146	-5.591143131256104	-802.9496459960938	-0.0	-0.0	-0.0	-0.0	-0.0	-0.0	-0.0	-0.0	-0.0	-0.0	-0.0	-0.0
0.3435000000000001	-0.0	-0.0	-0.0	-3.0526680946350098	-5.159816741943359	-803.8375244140625	-0.0	-0.0	-0.0	-0.0	-0.0	-0.0	-0.0	-0.0	-0.0	-0.0	-0.0	-0.0
0.3440000000000001	-0.0	-0.0	-0.0	-2.973677635192871	-3.758328914642334	-801.0709228515625	-0.0	-0.0	-0.0	-0.0	-0.0	-0.0	-0.0	-0.0	-0.0	-0.0	-0.0	-0.0
0.3445000000000001	-0.0	-0.0	-0.0	-3.058271169662476	-3.23378586769104	-800.7583618164062	-0.0	-0.0	-0.0	-0.0	-0.0	-0.0	-0.0	-0.0	-0.0	-0.0	-0.0	-0.0
0.3450000000000001	-0.0	-0.0	-0.0	-3.0534892082214355	-2.5695464611053467	-798.7723388671875	-0.0	-0.0	-0.0	-0.0	-0.0	-0.0	-0.0	-0.0	-0.0	-0.0	-0.0	-0.0
0.3455000000000001	-0.0	-0.0	-0.0	-3.5271458625793457	-1.7877627611160278	-797.5211791992188	-0.0	-0.0	-0.0	-0.0	-0.0	-0.0	-0.0	-0.0	-0.0	-0.0	-0.0	-0.0
0.3460000000000001	-0.0	-0.0	-0.0	-3.222032308578491	-0.7969512939453125	-794.6549072265625	-0.0	-0.0	-0.0	-0.0	-0.0	-0.0	-0.0	-0.0	-0.0	-0.0	-0.0	-0.0
0.3465000000000001	-0.0	-0.0	-0.0	-4.523213863372803	0.1103290915489196	-793.2421875	-0.0	-0.0	-0.0	-0.0	-0.0	-0.0	-0.0	-0.0	-0.0	-0.0	-0.0	-0.0
0.3470000000000001	-0.0	-0.0	-0.0	-5.604173183441162	0.8343223333358765	-792.4932861328125	-0.0	-0.0	-0.0	-0.0	-0.0	-0.0	-0.0	-0.0	-0.0	-0.0	-0.0	-0.0
0.3475000000000001	-0.0	-0.0	-0.0	-5.8878936767578125	0.2565576434135437	-790.1922607421875	-0.0	-0.0	-0.0	-0.0	-0.0	-0.0	-0.0	-0.0	-0.0	-0.0	-0.0	-0.0
0.3480000000000001	-0.0	-0.0	-0.0	-6.144526958465576	-1.1312243938446045	-794.2581176757812	-0.0	-0.0	-0.0	-0.0	-0.0	-0.0	-0.0	-0.0	-0.0	-0.0	-0.0	-0.0
